<svg width="41" height="45" viewBox="0 0 41 45" fill="none" xmlns="http://www.w3.org/2000/svg">
<g opacity="0.8" filter="url(#filter0_d_30_262)">
<rect x="4" y="6.625" width="33" height="32.375" rx="7" fill="#03008A"/>
<path d="M6.25 13.5625H34.75V31.1458C34.75 33.355 32.9591 35.1458 30.75 35.1458H10.25C8.04086 35.1458 6.25 33.355 6.25 31.1458V13.5625Z" fill="white"/>
<rect x="19.25" y="3" width="3.25" height="8.02083" rx="1.625" fill="white" stroke="#03008A" stroke-width="2"/>
<rect x="11" y="3" width="3.25" height="8.02083" rx="1.625" fill="white" stroke="#03008A" stroke-width="2"/>
<rect x="26.75" y="3" width="3.25" height="8.02083" rx="1.625" fill="white" stroke="#03008A" stroke-width="2"/>
<rect x="15.25" y="17.4167" width="3.75" height="3.85417" fill="#03008A"/>
<rect x="8.5" y="17.4167" width="3.75" height="3.85417" fill="#03008A"/>
<rect x="22" y="17.4167" width="3.75" height="3.85417" fill="#03008A"/>
<rect x="28.75" y="17.4167" width="3.75" height="3.85417" fill="#03008A"/>
<rect x="15.25" y="22.8125" width="3.75" height="3.85417" fill="#03008A"/>
<rect x="8.5" y="22.8125" width="3.75" height="3.85417" fill="#03008A"/>
<rect x="22" y="22.8125" width="3.75" height="3.85417" fill="#03008A"/>
<rect x="28.75" y="22.8125" width="3.75" height="3.85417" fill="#03008A"/>
<rect x="15.25" y="28.2083" width="3.75" height="3.85417" fill="#03008A"/>
<rect x="8.5" y="28.2083" width="3.75" height="3.85417" fill="#03008A"/>
<rect x="22" y="28.2083" width="3.75" height="3.85417" fill="#03008A"/>
<rect x="28.75" y="28.2083" width="3.75" height="3.85417" fill="#03008A"/>
</g>
<defs>
<filter id="filter0_d_30_262" x="0" y="0" width="41" height="45" filterUnits="userSpaceOnUse" color-interpolation-filters="sRGB">
<feFlood flood-opacity="0" result="BackgroundImageFix"/>
<feColorMatrix in="SourceAlpha" type="matrix" values="0 0 0 0 0 0 0 0 0 0 0 0 0 0 0 0 0 0 127 0" result="hardAlpha"/>
<feOffset dy="2"/>
<feGaussianBlur stdDeviation="2"/>
<feComposite in2="hardAlpha" operator="out"/>
<feColorMatrix type="matrix" values="0 0 0 0 0 0 0 0 0 0 0 0 0 0 0 0 0 0 0.25 0"/>
<feBlend mode="normal" in2="BackgroundImageFix" result="effect1_dropShadow_30_262"/>
<feBlend mode="normal" in="SourceGraphic" in2="effect1_dropShadow_30_262" result="shape"/>
</filter>
</defs>
</svg>
